<mxfile host="65bd71144e">
    <diagram id="x6_yL9SqoSDA33DfHBJj" name="ページ1">
        <mxGraphModel dx="1642" dy="785" grid="1" gridSize="10" guides="1" tooltips="1" connect="1" arrows="1" fold="1" page="1" pageScale="1" pageWidth="1169" pageHeight="827" math="0" shadow="0">
            <root>
                <mxCell id="0"/>
                <mxCell id="1" parent="0"/>
                <mxCell id="2" value="レイヤードアーキテクチャのプロジェクト分割例" style="rounded=0;whiteSpace=wrap;html=1;fillColor=none;align=left;verticalAlign=top;fontFamily=Noto Sans JP;fontSource=https%3A%2F%2Ffonts.googleapis.com%2Fcss%3Ffamily%3DNoto%2BSans%2BJP;fontSize=18;fontColor=#000000;spacingLeft=5;strokeColor=none;" vertex="1" parent="1">
                    <mxGeometry x="40" y="40" width="590" height="250" as="geometry"/>
                </mxCell>
                <mxCell id="3" value="Maris.Web.csproj" style="rounded=0;whiteSpace=wrap;html=1;fillColor=#FFFF99;strokeColor=#666666;fontColor=#000000;fontSize=18;fontFamily=Noto Sans JP;fontSource=https%3A%2F%2Ffonts.googleapis.com%2Fcss%3Ffamily%3DNoto%2BSans%2BJP;" vertex="1" parent="1">
                    <mxGeometry x="50" y="80" width="570" height="40" as="geometry"/>
                </mxCell>
                <mxCell id="15" style="edgeStyle=none;html=1;fontFamily=Noto Sans JP;fontSource=https%3A%2F%2Ffonts.googleapis.com%2Fcss%3Ffamily%3DNoto%2BSans%2BJP;fontSize=18;fontColor=#000000;endArrow=open;endFill=0;strokeColor=#000000;" edge="1" parent="1" source="4" target="5">
                    <mxGeometry relative="1" as="geometry"/>
                </mxCell>
                <mxCell id="4" value="Maris.FuncA.Business.csproj" style="rounded=0;whiteSpace=wrap;html=1;fillColor=#85D2FF;strokeColor=#666666;fontColor=#000000;fontSize=18;fontFamily=Noto Sans JP;fontSource=https%3A%2F%2Ffonts.googleapis.com%2Fcss%3Ffamily%3DNoto%2BSans%2BJP;" vertex="1" parent="1">
                    <mxGeometry x="50" y="160" width="280" height="40" as="geometry"/>
                </mxCell>
                <mxCell id="5" value="Maris.FuncA.DataAccess.csproj" style="rounded=0;whiteSpace=wrap;html=1;fillColor=#85D2FF;strokeColor=#666666;fontColor=#000000;fontSize=18;fontFamily=Noto Sans JP;fontSource=https%3A%2F%2Ffonts.googleapis.com%2Fcss%3Ffamily%3DNoto%2BSans%2BJP;" vertex="1" parent="1">
                    <mxGeometry x="50" y="240" width="280" height="40" as="geometry"/>
                </mxCell>
                <mxCell id="12" style="edgeStyle=none;html=1;fontFamily=Noto Sans JP;fontSource=https%3A%2F%2Ffonts.googleapis.com%2Fcss%3Ffamily%3DNoto%2BSans%2BJP;fontSize=18;fontColor=#000000;endArrow=open;endFill=0;strokeColor=#000000;" edge="1" parent="1" source="7" target="9">
                    <mxGeometry relative="1" as="geometry"/>
                </mxCell>
                <mxCell id="7" value="Maris.FuncB.Business.csproj" style="rounded=0;whiteSpace=wrap;html=1;fillColor=#99FFCC;strokeColor=#666666;fontColor=#000000;fontSize=18;fontFamily=Noto Sans JP;fontSource=https%3A%2F%2Ffonts.googleapis.com%2Fcss%3Ffamily%3DNoto%2BSans%2BJP;" vertex="1" parent="1">
                    <mxGeometry x="340" y="160" width="280" height="40" as="geometry"/>
                </mxCell>
                <mxCell id="9" value="Maris.FuncB.DataAccess.csproj" style="rounded=0;whiteSpace=wrap;html=1;fillColor=#99FFCC;strokeColor=#666666;fontColor=#000000;fontSize=18;fontFamily=Noto Sans JP;fontSource=https%3A%2F%2Ffonts.googleapis.com%2Fcss%3Ffamily%3DNoto%2BSans%2BJP;" vertex="1" parent="1">
                    <mxGeometry x="340" y="240" width="280" height="40" as="geometry"/>
                </mxCell>
                <mxCell id="11" style="edgeStyle=none;html=1;fontFamily=Noto Sans JP;fontSource=https%3A%2F%2Ffonts.googleapis.com%2Fcss%3Ffamily%3DNoto%2BSans%2BJP;fontSize=18;fontColor=#000000;strokeColor=#000000;endArrow=open;endFill=0;" edge="1" parent="1" target="7">
                    <mxGeometry relative="1" as="geometry">
                        <mxPoint x="480" y="120" as="sourcePoint"/>
                    </mxGeometry>
                </mxCell>
                <mxCell id="14" style="edgeStyle=none;html=1;fontFamily=Noto Sans JP;fontSource=https%3A%2F%2Ffonts.googleapis.com%2Fcss%3Ffamily%3DNoto%2BSans%2BJP;fontSize=18;fontColor=#000000;endArrow=open;endFill=0;strokeColor=#000000;" edge="1" parent="1" target="4">
                    <mxGeometry relative="1" as="geometry">
                        <mxPoint x="190" y="120" as="sourcePoint"/>
                    </mxGeometry>
                </mxCell>
            </root>
        </mxGraphModel>
    </diagram>
</mxfile>